<?xml version="1.0" encoding="utf-8"?>
<!-- Generator: Adobe Illustrator 19.1.0, SVG Export Plug-In . SVG Version: 6.00 Build 0)  -->
<svg version="1.1" id="Layer_1" xmlns="http://www.w3.org/2000/svg" xmlns:xlink="http://www.w3.org/1999/xlink" x="0px" y="0px"
	 viewBox="0 0 281.3 104.8" style="enable-background:new 0 0 281.3 104.8;" xml:space="preserve">
<style type="text/css">
	.st0{fill:#FFFFFF;}
	.st1{fill:#2086C7;}
	.st2{fill:#7A7A7A;}
	.st3{fill:#F7D921;}
</style>
<g>
	<g>
		<polygon class="st0" points="76.6,22.4 73.9,22.4 68.3,39.4 63.2,22.4 60.2,22.4 53.9,22.4 53.9,50.5 60.2,50.5 60.2,32.7 
			66.2,50.5 70.9,50.5 76.6,32.8 76.6,50.5 82.9,50.5 82.9,22.4 		"/>
		<polygon class="st0" points="206.6,44.2 206.6,22.4 200.3,22.4 200.3,44.2 200.3,50.5 206.6,50.5 214.9,50.5 214.9,44.2 		"/>
		<polygon class="st0" points="232.7,28.7 232.7,22.4 223.7,22.4 218.1,22.4 217.4,22.4 217.4,50.5 218.1,50.5 223.7,50.5 
			232.7,50.5 232.7,44.2 223.7,44.2 223.7,39.6 232.7,39.6 232.7,33.3 223.7,33.3 223.7,28.7 		"/>
		<path class="st0" d="M103.7,50.5h6.7l-10.3-27.8l-3,0l-3,0L83.9,50.5h6.7l1.3-3.9h10.4L103.7,50.5z M94,40.3l3.1-9.2l3.1,9.2H94z"
			/>
		<path class="st0" d="M192.8,50.4h6.7l-10.3-27.8l-3,0l-3,0L173,50.4h6.7l1.3-3.9h10.4L192.8,50.4z M183.1,40.2l3.1-9.2l3.1,9.2
			H183.1z"/>
		<path class="st0" d="M131,31.6c0-5.1-4.1-9.2-9.2-9.2l-4.4-0.1h-6.3v28.1h6.3v-8.6l0,0l5.8,8.6h7.4l-6.7-10
			C128,39.5,131,35.9,131,31.6z M120.9,35.2h-3.1V29h3.1c1.7,0,3.1,1.4,3.1,3.1S122.6,35.2,120.9,35.2z"/>
		<polygon class="st0" points="253.4,22.4 253.4,38.3 243.4,22.4 237.1,22.4 237.1,50.5 243.4,50.5 243.4,35 253.4,50.5 259.7,50.5 
			259.7,22.4 		"/>
		<polygon class="st0" points="175.1,22.4 169.6,22.4 163.3,22.4 157.8,22.4 157.8,28.7 163.3,28.7 163.3,50.5 169.6,50.5 
			169.6,28.7 175.1,28.7 		"/>
		<polygon class="st0" points="279.1,22.7 273.7,22.7 267.4,22.7 261.9,22.7 261.9,28.9 267.4,28.9 267.4,50.8 273.7,50.8 
			273.7,28.9 279.1,28.9 		"/>
		<polygon class="st0" points="149.3,22.7 143.9,22.7 137.6,22.7 132.1,22.7 132.1,28.9 137.6,28.9 137.6,50.8 143.9,50.8 
			143.9,28.9 149.3,28.9 		"/>
		<path class="st0" d="M45.6,34.4L40.5,32c-0.8-0.4-1.3-1.1-1.3-2c0-1.3,1-2.3,2.3-2.3c1.3,0,2.3,1,2.3,2.3c0,0.1,0,1,0,1h6.3l0,0
			c0-0.1,0-0.3,0-0.4c0-4.7-4-8.4-8.9-8.4s-8.9,3.8-8.9,8.4c0,3.3,2,6.2,4.9,7.5l4.6,2c0.9,0.4,1.6,1.3,1.6,2.4
			c0,1.4-1.2,2.6-2.6,2.6c-1.4,0-2.6-1.2-2.6-2.6c0-0.1,0-1.3,0-1.3h-6.5l0,0c-0.1,0.4-0.1,0.8-0.1,1.2c0,5,4.2,9,9.5,9
			c5.2,0,9.5-4,9.5-9C50.7,38.9,48.6,35.9,45.6,34.4z"/>
		<path class="st0" d="M42.6,55.3v2.3c0,0.4-0.2,0.8-0.5,1.1c-0.3,0.3-0.7,0.5-1.2,0.5h-0.5l2.1,2.5v0.4h-1.7l-2.4-2.9h-2.7h0v2.9
			h-1.5v-8.4H41c0.5,0,0.8,0.2,1.2,0.5C42.4,54.4,42.6,54.8,42.6,55.3z M35.8,57.6H41c0.1,0,0.1,0,0.1-0.1v-2.3c0-0.1,0-0.1-0.1-0.1
			h-5.2c-0.1,0-0.1,0-0.1,0.1L35.8,57.6C35.7,57.6,35.7,57.6,35.8,57.6z"/>
		<path class="st0" d="M57.8,53.6v1.5h-6.2v1.9h5v1.5h-5v1.9h6.2v1.5H50v-8.4H57.8z"/>
		<path class="st0" d="M88.2,60.4v-6.8h1.6v6.8c0,0.5-0.2,0.8-0.5,1.2s-0.7,0.5-1.1,0.5H83c-0.5,0-0.8-0.2-1.2-0.5
			c-0.3-0.3-0.5-0.7-0.5-1.2v-6.8h1.5v6.8c0,0.1,0,0.1,0.1,0.1L88.2,60.4C88.2,60.5,88.2,60.5,88.2,60.4z"/>
		<path class="st0" d="M105.6,55.3v2.3c0,0.4-0.2,0.8-0.5,1.1c-0.3,0.3-0.7,0.5-1.2,0.5h-0.5l2.1,2.5v0.4H104l-2.4-2.9h-2.7h0v2.9
			h-1.5v-8.4h6.8c0.5,0,0.8,0.2,1.2,0.5C105.5,54.4,105.6,54.8,105.6,55.3z M98.8,57.6h5.2c0.1,0,0.1,0,0.1-0.1v-2.3
			c0-0.1,0-0.1-0.1-0.1h-5.2c-0.1,0-0.1,0-0.1,0.1L98.8,57.6C98.7,57.6,98.8,57.6,98.8,57.6z"/>
		<path class="st0" d="M121.5,55.3v0.6h-1.6v-0.6c0-0.1,0-0.1-0.1-0.1h-5.2c-0.1,0-0.1,0-0.1,0.1V57c0,0.1,0,0.1,0.1,0.1h5.2
			c0.4,0,0.8,0.2,1.1,0.5c0.3,0.3,0.5,0.7,0.5,1.2v1.7c0,0.5-0.2,0.8-0.5,1.2s-0.7,0.5-1.1,0.5h-5.2c-0.5,0-0.8-0.2-1.2-0.5
			c-0.3-0.3-0.5-0.7-0.5-1.2v-0.6h1.5v0.6c0,0.1,0,0.1,0.1,0.1h5.2c0,0,0.1,0,0.1-0.1v-1.7c0-0.1,0-0.1-0.1-0.1h-5.2
			c-0.5,0-0.8-0.2-1.2-0.5c-0.3-0.3-0.5-0.7-0.5-1.2v-1.7c0-0.5,0.2-0.8,0.5-1.2c0.3-0.3,0.7-0.5,1.2-0.5h5.2c0.4,0,0.8,0.2,1.1,0.5
			C121.3,54.4,121.5,54.8,121.5,55.3z"/>
		<path class="st0" d="M130.5,53.6h5.2c0.4,0,0.8,0.2,1.1,0.5c0.3,0.3,0.5,0.7,0.5,1.2v5.2c0,0.5-0.2,0.8-0.5,1.2
			c-0.3,0.3-0.7,0.5-1.1,0.5h-5.2c-0.5,0-0.8-0.2-1.2-0.5c-0.3-0.3-0.5-0.7-0.5-1.2v-5.2c0-0.5,0.2-0.8,0.5-1.2
			C129.7,53.8,130.1,53.6,130.5,53.6z M130.5,60.5h5.2c0,0,0.1,0,0.1-0.1v-5.2c0-0.1,0-0.1-0.1-0.1h-5.2c-0.1,0-0.1,0-0.1,0.1
			L130.5,60.5C130.5,60.5,130.5,60.5,130.5,60.5z"/>
		<path class="st0" d="M153.2,55.3v0.6h-1.6v-0.6c0-0.1,0-0.1-0.1-0.1h-5.2c-0.1,0-0.1,0-0.1,0.1V57c0,0.1,0,0.1,0.1,0.1h5.2
			c0.4,0,0.8,0.2,1.1,0.5c0.3,0.3,0.5,0.7,0.5,1.2v1.7c0,0.5-0.2,0.8-0.5,1.2c-0.3,0.3-0.7,0.5-1.1,0.5h-5.2c-0.5,0-0.8-0.2-1.2-0.5
			c-0.3-0.3-0.5-0.7-0.5-1.2v-0.6h1.5v0.6c0,0.1,0,0.1,0.1,0.1h5.2c0,0,0.1,0,0.1-0.1v-1.7c0-0.1,0-0.1-0.1-0.1h-5.2
			c-0.5,0-0.8-0.2-1.2-0.5c-0.3-0.3-0.5-0.7-0.5-1.2v-1.7c0-0.5,0.2-0.8,0.5-1.2c0.3-0.3,0.7-0.5,1.2-0.5h5.2c0.4,0,0.8,0.2,1.1,0.5
			C153.1,54.4,153.2,54.8,153.2,55.3z"/>
		<path class="st0" d="M173.7,53.7h1.5v8.4h-1.5v-3.4h-5.5v3.4h-1.5v-8.4h1.5v3.4h5.5V53.7z"/>
		<path class="st0" d="M189.5,60.5v-6.8h1.6v6.8c0,0.5-0.2,0.8-0.5,1.2c-0.3,0.3-0.7,0.5-1.1,0.5h-5.2c-0.5,0-0.8-0.2-1.2-0.5
			c-0.3-0.3-0.5-0.7-0.5-1.2v-6.8h1.5v6.8c0,0.1,0,0.1,0.1,0.1L189.5,60.5C189.5,60.6,189.5,60.5,189.5,60.5z"/>
		<path class="st0" d="M203.2,57.3l3.1-3.7h1.7v8.4h-1.6v-6.2l-3.2,3.8l-3.2-3.8v6.2h-1.5v-8.4h1.7L203.2,57.3z"/>
		<path class="st0" d="M240.9,59.8v-6.2h1.6v8.4h-1.7l-5.2-6.2v6.2H234v-8.4h1.7L240.9,59.8z"/>
		<path class="st0" d="M251.5,53.7h5.2c0.4,0,0.8,0.2,1.1,0.5c0.3,0.3,0.5,0.7,0.5,1.2v5.2c0,0.5-0.2,0.8-0.5,1.2
			c-0.3,0.3-0.7,0.5-1.1,0.5h-5.2c-0.5,0-0.8-0.2-1.2-0.5c-0.3-0.3-0.5-0.7-0.5-1.2v-5.2c0-0.5,0.2-0.8,0.5-1.2
			C250.6,53.8,251,53.7,251.5,53.7z M251.5,60.6h5.2c0,0,0.1,0,0.1-0.1v-5.2c0-0.1,0-0.1-0.1-0.1h-5.2c-0.1,0-0.1,0-0.1,0.1
			L251.5,60.6C251.4,60.5,251.4,60.6,251.5,60.6z"/>
		<path class="st0" d="M274.1,55.3v0.6h-1.6v-0.6c0-0.1,0-0.1-0.1-0.1h-5.2c-0.1,0-0.1,0-0.1,0.1V57c0,0.1,0,0.1,0.1,0.1h5.2
			c0.4,0,0.8,0.2,1.1,0.5c0.3,0.3,0.5,0.7,0.5,1.2v1.7c0,0.5-0.2,0.8-0.5,1.2c-0.3,0.3-0.7,0.5-1.1,0.5h-5.2c-0.5,0-0.8-0.2-1.2-0.5
			c-0.3-0.3-0.5-0.7-0.5-1.2v-0.6h1.5v0.6c0,0.1,0,0.1,0.1,0.1h5.2c0,0,0.1,0,0.1-0.1v-1.7c0-0.1,0-0.1-0.1-0.1h-5.2
			c-0.5,0-0.8-0.2-1.2-0.5c-0.3-0.3-0.5-0.7-0.5-1.2v-1.7c0-0.5,0.2-0.8,0.5-1.2c0.3-0.3,0.7-0.5,1.2-0.5h5.2c0.4,0,0.8,0.2,1.1,0.5
			C274,54.4,274.1,54.8,274.1,55.3z"/>
		<path class="st0" d="M224.7,62.2h1.9l-4.8-8.7h0h-1.7h0l-4.8,8.7h1.9l0.9-1.8h5.5L224.7,62.2z M219.1,58.8l1.9-3.7l1.9,3.7H219.1z
			"/>
		<path class="st0" d="M73.9,56.6v-1.3c0-0.5-0.2-0.8-0.5-1.2c-0.3-0.3-0.7-0.5-1.1-0.5h-0.2l-5.3,0c-0.5,0-0.8,0.2-1.2,0.5
			c-0.3,0.3-0.5,0.7-0.5,1.2v5.2c0,0.5,0.2,0.8,0.5,1.2c0.3,0.3,0.7,0.5,1.2,0.5h4.9h0.5c0.5,0,0.8-0.2,1.2-0.5
			c0.3-0.3,0.5-0.7,0.5-1.2v-1.3h-1.5v1.3c0,0.1,0,0.1-0.1,0.1h-0.5h-4.9c-0.1,0-0.1,0-0.1-0.1v-5.2c0-0.1,0-0.1,0.1-0.1l4.8,0l0,0
			h0.7c0,0,0.1,0,0.1,0.1v1.3H73.9z"/>
		<path class="st0" d="M61.3,16c0,0-8.6-12.1-24.5-12.1S3.3,15.4,3.3,36.7s13.8,26.9,18.4,33.2S26,87,26,87h20.8
			c0,0-4.7-11.9,5.9-19c0,0-12.9,1.6-22.3-5.4c-5.7-4.2-10.1-11.5-9.7-24C21,25.2,30.7,16.2,40.1,13.9C50.8,11.1,61.3,16,61.3,16z"
			/>
		<ellipse class="st0" cx="36.4" cy="90.9" rx="11.9" ry="1.5"/>
		<ellipse class="st0" cx="36.4" cy="96.3" rx="11.9" ry="1.5"/>
		<ellipse class="st0" cx="36.4" cy="101.7" rx="5.4" ry="1.4"/>
	</g>
	<g>
		<polygon class="st1" points="75.5,21.6 72.8,21.6 67.2,38.6 62.1,21.6 59.1,21.6 52.8,21.6 52.8,49.7 59.1,49.7 59.1,31.9 
			65.1,49.7 69.8,49.7 75.5,32 75.5,49.7 81.8,49.7 81.8,21.6 		"/>
		<polygon class="st1" points="205.5,43.4 205.5,21.6 199.3,21.6 199.3,43.4 199.3,49.7 205.5,49.7 213.9,49.7 213.9,43.4 		"/>
		<polygon class="st1" points="231.6,27.9 231.6,21.6 222.6,21.6 217,21.6 216.3,21.6 216.3,49.7 217,49.7 222.6,49.7 231.6,49.7 
			231.6,43.4 222.6,43.4 222.6,38.8 231.6,38.8 231.6,32.5 222.6,32.5 222.6,27.9 		"/>
		<path class="st1" d="M102.6,49.7h6.7L99,21.9l-3,0l-3,0L82.8,49.7h6.7l1.3-3.9h10.4L102.6,49.7z M93,39.5l3.1-9.2l3.1,9.2H93z"/>
		<path class="st1" d="M191.7,49.6h6.7l-10.3-27.8l-3,0l-3,0l-10.3,27.8h6.7l1.3-3.9h10.4L191.7,49.6z M182.1,39.3l3.1-9.2l3.1,9.2
			H182.1z"/>
		<path class="st1" d="M129.9,30.8c0-5.1-4.1-9.2-9.2-9.2l-4.4-0.1h-6.3v28.1h6.3v-8.6l0,0l5.8,8.6h7.4l-6.7-10
			C126.9,38.7,129.9,35.1,129.9,30.8z M119.9,34.4h-3.1v-6.2h3.1c1.7,0,3.1,1.4,3.1,3.1C122.9,33,121.6,34.4,119.9,34.4z"/>
		<polygon class="st1" points="252.4,21.6 252.4,37.5 242.3,21.6 236,21.6 236,49.7 242.3,49.7 242.3,34.2 252.4,49.7 258.6,49.7 
			258.6,21.6 		"/>
		<polygon class="st1" points="174,21.6 168.5,21.6 162.2,21.6 156.8,21.6 156.8,27.9 162.2,27.9 162.2,49.7 168.5,49.7 168.5,27.9 
			174,27.9 		"/>
		<polygon class="st1" points="278.1,21.8 272.6,21.8 266.3,21.8 260.8,21.8 260.8,28.1 266.3,28.1 266.3,50 272.6,50 272.6,28.1 
			278.1,28.1 		"/>
		<polygon class="st1" points="148.3,21.8 142.8,21.8 136.5,21.8 131.1,21.8 131.1,28.1 136.5,28.1 136.5,50 142.8,50 142.8,28.1 
			148.3,28.1 		"/>
		<path class="st1" d="M44.5,33.5l-5.1-2.4c-0.8-0.4-1.3-1.1-1.3-2c0-1.3,1-2.3,2.3-2.3c1.3,0,2.3,1,2.3,2.3c0,0.1,0,1,0,1H49l0,0
			c0-0.1,0-0.3,0-0.4c0-4.7-4-8.4-8.9-8.4s-8.9,3.8-8.9,8.4c0,3.3,2,6.2,4.9,7.5l4.6,2c0.9,0.4,1.6,1.3,1.6,2.4
			c0,1.4-1.2,2.6-2.6,2.6c-1.4,0-2.6-1.2-2.6-2.6c0-0.1,0-1.3,0-1.3h-6.5l0,0c-0.1,0.4-0.1,0.8-0.1,1.2c0,5,4.2,9,9.5,9
			c5.2,0,9.5-4,9.5-9C49.6,38.1,47.5,35.1,44.5,33.5z"/>
		<path class="st2" d="M41.5,54.5v2.3c0,0.4-0.2,0.8-0.5,1.1c-0.3,0.3-0.7,0.5-1.2,0.5h-0.5l2.1,2.5v0.4h-1.7l-2.4-2.9h-2.7h0v2.9
			h-1.5v-8.4h6.8c0.5,0,0.8,0.2,1.2,0.5C41.4,53.6,41.5,54,41.5,54.5z M34.7,56.8h5.2c0.1,0,0.1,0,0.1-0.1v-2.3c0-0.1,0-0.1-0.1-0.1
			h-5.2c-0.1,0-0.1,0-0.1,0.1L34.7,56.8C34.6,56.8,34.7,56.8,34.7,56.8z"/>
		<path class="st2" d="M56.7,52.8v1.5h-6.2v1.9h5v1.5h-5v1.9h6.2v1.5h-7.8v-8.4H56.7z"/>
		<path class="st2" d="M87.1,59.6v-6.8h1.6v6.8c0,0.5-0.2,0.8-0.5,1.2c-0.3,0.3-0.7,0.5-1.1,0.5h-5.2c-0.5,0-0.8-0.2-1.2-0.5
			c-0.3-0.3-0.5-0.7-0.5-1.2v-6.8h1.5v6.8c0,0.1,0,0.1,0.1,0.1L87.1,59.6C87.1,59.7,87.1,59.7,87.1,59.6z"/>
		<path class="st2" d="M104.6,54.5v2.3c0,0.4-0.2,0.8-0.5,1.1c-0.3,0.3-0.7,0.5-1.2,0.5h-0.5l2.1,2.5v0.4h-1.7l-2.4-2.9h-2.7h0v2.9
			h-1.5v-8.4h6.8c0.5,0,0.8,0.2,1.2,0.5C104.4,53.6,104.6,54,104.6,54.5z M97.8,56.8h5.2c0.1,0,0.1,0,0.1-0.1v-2.3
			c0-0.1,0-0.1-0.1-0.1h-5.2c-0.1,0-0.1,0-0.1,0.1L97.8,56.8C97.7,56.8,97.7,56.8,97.8,56.8z"/>
		<path class="st2" d="M120.4,54.4v0.6h-1.6v-0.6c0-0.1,0-0.1-0.1-0.1h-5.2c-0.1,0-0.1,0-0.1,0.1v1.7c0,0.1,0,0.1,0.1,0.1h5.2
			c0.4,0,0.8,0.2,1.1,0.5c0.3,0.3,0.5,0.7,0.5,1.2v1.7c0,0.5-0.2,0.8-0.5,1.2c-0.3,0.3-0.7,0.5-1.1,0.5h-5.2c-0.5,0-0.8-0.2-1.2-0.5
			c-0.3-0.3-0.5-0.7-0.5-1.2V59h1.5v0.6c0,0.1,0,0.1,0.1,0.1h5.2c0,0,0.1,0,0.1-0.1v-1.7c0-0.1,0-0.1-0.1-0.1h-5.2
			c-0.5,0-0.8-0.2-1.2-0.5c-0.3-0.3-0.5-0.7-0.5-1.2v-1.7c0-0.5,0.2-0.8,0.5-1.2c0.3-0.3,0.7-0.5,1.2-0.5h5.2c0.4,0,0.8,0.2,1.1,0.5
			C120.3,53.6,120.4,54,120.4,54.4z"/>
		<path class="st2" d="M129.5,52.8h5.2c0.4,0,0.8,0.2,1.1,0.5c0.3,0.3,0.5,0.7,0.5,1.2v5.2c0,0.5-0.2,0.8-0.5,1.2
			c-0.3,0.3-0.7,0.5-1.1,0.5h-5.2c-0.5,0-0.8-0.2-1.2-0.5c-0.3-0.3-0.5-0.7-0.5-1.2v-5.2c0-0.5,0.2-0.8,0.5-1.2
			C128.6,53,129,52.8,129.5,52.8z M129.5,59.7h5.2c0,0,0.1,0,0.1-0.1v-5.2c0-0.1,0-0.1-0.1-0.1h-5.2c-0.1,0-0.1,0-0.1,0.1
			L129.5,59.7C129.4,59.7,129.4,59.7,129.5,59.7z"/>
		<path class="st2" d="M152.1,54.4v0.6h-1.6v-0.6c0-0.1,0-0.1-0.1-0.1h-5.2c-0.1,0-0.1,0-0.1,0.1v1.7c0,0.1,0,0.1,0.1,0.1h5.2
			c0.4,0,0.8,0.2,1.1,0.5c0.3,0.3,0.5,0.7,0.5,1.2v1.7c0,0.5-0.2,0.8-0.5,1.2c-0.3,0.3-0.7,0.5-1.1,0.5h-5.2c-0.5,0-0.8-0.2-1.2-0.5
			c-0.3-0.3-0.5-0.7-0.5-1.2V59h1.5v0.6c0,0.1,0,0.1,0.1,0.1h5.2c0,0,0.1,0,0.1-0.1v-1.7c0-0.1,0-0.1-0.1-0.1h-5.2
			c-0.5,0-0.8-0.2-1.2-0.5c-0.3-0.3-0.5-0.7-0.5-1.2v-1.7c0-0.5,0.2-0.8,0.5-1.2c0.3-0.3,0.7-0.5,1.2-0.5h5.2c0.4,0,0.8,0.2,1.1,0.5
			C152,53.6,152.1,54,152.1,54.4z"/>
		<path class="st2" d="M172.6,52.8h1.5v8.4h-1.5v-3.4H167v3.4h-1.5v-8.4h1.5v3.4h5.5V52.8z"/>
		<path class="st2" d="M188.4,59.6v-6.8h1.6v6.8c0,0.5-0.2,0.8-0.5,1.2c-0.3,0.3-0.7,0.5-1.1,0.5h-5.2c-0.5,0-0.8-0.2-1.2-0.5
			c-0.3-0.3-0.5-0.7-0.5-1.2v-6.8h1.5v6.8c0,0.1,0,0.1,0.1,0.1L188.4,59.6C188.4,59.7,188.4,59.7,188.4,59.6z"/>
		<path class="st2" d="M202.1,56.5l3.1-3.7h1.7v8.4h-1.6v-6.2l-3.2,3.8l-3.2-3.8v6.2h-1.5v-8.4h1.7L202.1,56.5z"/>
		<path class="st2" d="M239.8,59v-6.2h1.6v8.4h-1.7l-5.2-6.2v6.2h-1.5v-8.4h1.7L239.8,59z"/>
		<path class="st2" d="M250.4,52.8h5.2c0.4,0,0.8,0.2,1.1,0.5c0.3,0.3,0.5,0.7,0.5,1.2v5.2c0,0.5-0.2,0.8-0.5,1.2
			c-0.3,0.3-0.7,0.5-1.1,0.5h-5.2c-0.5,0-0.8-0.2-1.2-0.5c-0.3-0.3-0.5-0.7-0.5-1.2v-5.2c0-0.5,0.2-0.8,0.5-1.2
			C249.6,53,250,52.8,250.4,52.8z M250.4,59.7h5.2c0,0,0.1,0,0.1-0.1v-5.2c0-0.1,0-0.1-0.1-0.1h-5.2c-0.1,0-0.1,0-0.1,0.1
			L250.4,59.7C250.3,59.7,250.4,59.7,250.4,59.7z"/>
		<path class="st2" d="M273.1,54.5v0.6h-1.6v-0.6c0-0.1,0-0.1-0.1-0.1h-5.2c-0.1,0-0.1,0-0.1,0.1v1.7c0,0.1,0,0.1,0.1,0.1h5.2
			c0.4,0,0.8,0.2,1.1,0.5c0.3,0.3,0.5,0.7,0.5,1.2v1.7c0,0.5-0.2,0.8-0.5,1.2c-0.3,0.3-0.7,0.5-1.1,0.5h-5.2c-0.5,0-0.8-0.2-1.2-0.5
			c-0.3-0.3-0.5-0.7-0.5-1.2V59h1.5v0.6c0,0.1,0,0.1,0.1,0.1h5.2c0,0,0.1,0,0.1-0.1v-1.7c0-0.1,0-0.1-0.1-0.1h-5.2
			c-0.5,0-0.8-0.2-1.2-0.5c-0.3-0.3-0.5-0.7-0.5-1.2v-1.7c0-0.5,0.2-0.8,0.5-1.2c0.3-0.3,0.7-0.5,1.2-0.5h5.2c0.4,0,0.8,0.2,1.1,0.5
			C272.9,53.6,273.1,54,273.1,54.5z"/>
		<path class="st2" d="M223.6,61.4h1.9l-4.8-8.7h0h-1.7h0l-4.8,8.7h1.9l0.9-1.8h5.5L223.6,61.4z M218,58l1.9-3.7l1.9,3.7H218z"/>
		<path class="st2" d="M72.8,55.7v-1.3c0-0.5-0.2-0.8-0.5-1.2c-0.3-0.3-0.7-0.5-1.1-0.5h-0.2l-5.3,0c-0.5,0-0.8,0.2-1.2,0.5
			c-0.3,0.3-0.5,0.7-0.5,1.2v5.2c0,0.5,0.2,0.8,0.5,1.2c0.3,0.3,0.7,0.5,1.2,0.5h4.9h0.5c0.5,0,0.8-0.2,1.2-0.5
			c0.3-0.3,0.5-0.7,0.5-1.2v-1.3h-1.5v1.3c0,0.1,0,0.1-0.1,0.1h-0.5h-4.9c-0.1,0-0.1,0-0.1-0.1v-5.2c0-0.1,0-0.1,0.1-0.1l4.8,0l0,0
			h0.7c0,0,0.1,0,0.1,0.1v1.3H72.8z"/>
		<path class="st3" d="M60.2,15.2c0,0-8.6-12.1-24.5-12.1S2.2,14.6,2.2,35.9S16,62.8,20.6,69.1s4.3,17.1,4.3,17.1h20.8
			c0,0-4.7-11.9,5.9-19c0,0-12.9,1.6-22.3-5.4c-5.7-4.2-10.1-11.5-9.7-24C19.9,24.4,29.6,15.4,39,13C49.7,10.3,60.2,15.2,60.2,15.2z
			"/>
		<ellipse class="st2" cx="35.3" cy="90" rx="11.9" ry="1.5"/>
		<ellipse class="st2" cx="35.3" cy="95.5" rx="11.9" ry="1.5"/>
		<ellipse class="st2" cx="35.3" cy="100.9" rx="5.4" ry="1.4"/>
	</g>
</g>
</svg>
