<?xml version="1.0" encoding="UTF-8"?>
<svg id="Capa_2" data-name="Capa 2" xmlns="http://www.w3.org/2000/svg" viewBox="0 0 432.18 591.41">
  <defs>
    <style>
      .cls-1 {
        fill: #83c3ff;
      }

      .cls-1, .cls-2, .cls-3 {
        stroke-width: 0px;
      }

      .cls-2 {
        fill: #b9d0db;
      }

      .cls-3 {
        fill: #ffd027;
      }
    </style>
  </defs>
  <g id="color_complementario" data-name="color complementario">
    <g>
      <path class="cls-2" d="M114.59,545.92h134.77c.47,0,.86.38.86.86v42.07c0,1.42-1.15,2.57-2.57,2.57H116.3c-1.42,0-2.57-1.15-2.57-2.57v-42.07c0-.47.38-.86.86-.86Z"/>
      <path class="cls-1" d="M429.44,61.67l-31.54,16.21c-.94.48-1.7,1.25-2.19,2.19l-16.21,31.54c-1.88,3.66-7.11,3.66-8.99,0l-16.21-31.54c-.48-.94-1.25-1.7-2.19-2.19l-31.54-16.21c-3.66-1.88-3.66-7.11,0-8.99l31.54-16.21c.94-.48,1.7-1.25,2.19-2.19l16.21-31.54c1.88-3.66,7.11-3.66,8.99,0l16.21,31.54c.48.94,1.25,1.7,2.19,2.19l31.54,16.21c3.66,1.88,3.66,7.11,0,8.99Z"/>
      <path class="cls-3" d="M253.36,210.09h-71.39v-56.89c0-10-12.97-13.93-18.52-5.61l-61.28,91.92c-4.48,6.72.34,15.72,8.41,15.72h71.39v56.89c0,10,12.97,13.93,18.52,5.61l61.28-91.92c4.48-6.72-.34-15.72-8.41-15.72Z"/>
      <path class="cls-3" d="M295.85,409.44H66.36c-6.4,0-12.11-4.02-14.27-10.04L5.58,269.73c-13.53-53.18-2.16-108.95,31.19-153.01,32.32-42.69,81.48-68.57,134.87-71.02,3.14-.14,6.3-.21,9.49-.21,43.28,0,85.48,14.89,118.81,41.93,52.96,42.98,75.77,114.37,58.11,181.87l-.69,2.18-47.28,128.05c-2.2,5.96-7.88,9.91-14.23,9.91ZM89.76,362.09h182.89l39.01-105.65c12.52-49.49-4.05-101.39-42.4-132.51-24.72-20.05-56.02-31.1-88.13-31.1-2.43,0-4.85.06-7.25.17-38.91,1.78-74.8,20.72-98.46,51.98-24.48,32.33-32.97,73.17-23.37,112.22l37.71,104.88Z"/>
      <g>
        <path class="cls-2" d="M309.92,466.3v-24.01c0-5.58-4.53-10.11-10.11-10.11H64.13c-5.58,0-10.11,4.53-10.11,10.11v24.01h255.9Z"/>
        <path class="cls-2" d="M55.51,489.05c5.06,19.61,22.81,34.12,44,34.12h164.91c21.19,0,38.94-14.51,44-34.12H55.51Z"/>
      </g>
    </g>
  </g>
</svg>