<?xml version="1.0" encoding="UTF-8"?>
<svg id="Capa_2" data-name="Capa 2" xmlns="http://www.w3.org/2000/svg" viewBox="0 0 612.91 77.85">
  <defs>
    <style>
      .cls-1 {
        fill: #b9d0db;
      }

      .cls-1, .cls-2, .cls-3, .cls-4 {
        stroke-width: 0px;
      }

      .cls-2 {
        fill: #3d4490;
      }

      .cls-3 {
        fill: #ffd027;
      }

      .cls-4 {
        fill: #5994ff;
      }
    </style>
  </defs>
  <g id="Versión_pincipal" data-name="Versión pincipal">
    <g>
      <g>
        <path class="cls-4" d="M120.92,55.94c0,6.84-2.52,12.29-7.52,16.21-4.79,3.78-11.37,5.69-19.55,5.69s-14.67-1.29-19.84-3.81l-1.55-.76v-12.11c0-2.03,2.1-3.35,3.92-2.51,2.87,1.36,5.99,2.43,9.23,3.22,3.21.77,6.23,1.16,8.95,1.16,3.63,0,6.36-.64,7.89-1.88,1.42-1.12,2.06-2.54,2.06-4.5,0-1.73-.61-3.11-1.95-4.35-1.12-1.03-3.92-2.86-10.91-5.66-6.63-2.69-11.24-5.75-14.08-9.34-2.89-3.67-4.35-8.11-4.35-13.17,0-6.45,2.36-11.63,6.98-15.37,4.48-3.61,10.45-5.44,17.76-5.44,6.78,0,13.6,1.49,20.29,4.46l.63.28c.99.44,1.47,1.6,1.09,2.63l-4,10.24c-.42,1.07-1.66,1.58-2.73,1.14l-.66-.28c-5.6-2.36-10.61-3.56-14.89-3.56-2.87,0-4.99.57-6.3,1.68-1.2,1.01-1.77,2.28-1.77,4.02,0,1.23.24,2.27.72,3.06.52.87,1.44,1.75,2.76,2.6,1.53,1.01,4.42,2.4,8.62,4.13,5.2,2.16,8.95,4.16,11.46,6.1,2.62,2.03,4.59,4.39,5.84,7,1.25,2.6,1.88,5.66,1.88,9.08Z"/>
        <path class="cls-4" d="M203.87,41.09v33.2c0,1.46-1.18,2.63-2.63,2.63h-11.06c-1.44,0-2.62-1.18-2.62-2.63v-31.42c0-3.21-.57-5.62-1.66-7-.92-1.22-2.47-1.81-4.72-1.81-3.3,0-5.58.92-6.98,2.8-1.57,2.12-2.36,5.62-2.36,10.41v27.01c0,1.46-1.18,2.63-2.63,2.63h-11.09c-1.46,0-2.63-1.18-2.63-2.63v-31.42c0-3.21-.55-5.62-1.62-7.02-.35-.44-1.38-1.79-4.7-1.79s-5.51.96-6.91,2.91c-1.09,1.53-2.4,4.83-2.4,11.9v25.41c0,1.46-1.18,2.63-2.63,2.63h-11.06c-1.44,0-2.62-1.18-2.62-2.63V23.27c0-1.44,1.18-2.62,2.62-2.62h9.42c.81,0,1.51.55,1.68,1.33.2.83.9,1.33,1.66,1.33.33,0,.66-.09.96-.28.59-.37,1.2-.72,1.86-1.05,3.04-1.49,6.41-2.25,10.04-2.25,6.17,0,10.96,1.53,14.33,4.57,1.01.92,2.49.96,3.56.09,1.03-.85,2.17-1.6,3.41-2.25,3.11-1.6,6.69-2.41,10.63-2.41,6.84,0,11.99,1.84,15.29,5.49,3.22,3.57,4.86,8.9,4.86,15.86Z"/>
        <path class="cls-4" d="M406.44,6.25v11.06c0,1.09-.87,1.95-1.93,1.95h-15.85c-1.09,0-1.95.87-1.95,1.93v53.8c0,1.07-.87,1.93-1.93,1.93h-12.62c-1.07,0-1.93-.87-1.93-1.93V21.19c0-1.07-.87-1.93-1.93-1.93h-15.85c-1.07,0-1.95-.87-1.95-1.95V6.25c0-1.07.88-1.93,1.95-1.93h52.07c1.07,0,1.93.87,1.93,1.93Z"/>
        <path class="cls-4" d="M513.16,26.7c-4.42-4.62-10.43-6.96-17.87-6.96-8.03,0-14.46,2.71-19.11,8.05-4.57,5.25-6.87,12.44-6.87,21.37s2.51,15.83,7.44,20.93c4.97,5.14,11.87,7.76,20.51,7.76,3.61,0,6.89-.28,9.75-.83,2.91-.57,5.82-1.53,8.64-2.89l1.58-.74v-10.52c0-1.58-1.31-2.76-2.76-2.76-.37,0-.76.07-1.12.24-2.78,1.23-5.42,2.14-7.79,2.65-2.38.52-5.01.79-7.79.79-3.8,0-6.61-1.03-8.59-3.11-.77-.81-1.42-1.81-1.92-2.93-.79-1.77.64-3.76,2.58-3.76h27.16c1.53,0,2.76-1.23,2.76-2.76v-5.82c0-7.83-2.23-14.13-6.6-18.7ZM495.28,33.42c2.63,0,4.61.77,6.03,2.34.13.13.24.26.35.41,1.4,1.84.11,4.5-2.19,4.5h-8.55c-2.34,0-3.65-2.78-2.12-4.55.07-.11.17-.2.24-.29,1.55-1.6,3.57-2.4,6.25-2.4Z"/>
        <path class="cls-4" d="M572.97,41.09v34.05c0,.99-.81,1.79-1.81,1.79h-12.77c-.99,0-1.79-.79-1.79-1.79v-32.17c0-3.24-.59-5.6-1.75-7.02-1.03-1.27-2.78-1.88-5.36-1.88-3.69,0-6.25.98-7.81,2.98-1.18,1.49-2.58,4.77-2.58,11.83v26.26c0,.99-.81,1.79-1.79,1.79h-12.73c-1,0-1.81-.79-1.81-1.79V22.44c0-1,.81-1.79,1.81-1.79h10.19c.83,0,1.57.57,1.75,1.38.18.85.94,1.4,1.75,1.4.29,0,.61-.07.9-.26.7-.44,1.44-.85,2.23-1.22,3.17-1.47,6.71-2.23,10.52-2.23,13.76,0,21.04,7.39,21.04,21.36Z"/>
        <path class="cls-4" d="M612.91,63.16v11.88l-1.66.74c-1.38.61-3.1,1.09-5.21,1.49-2.05.37-4.18.57-6.36.57-11.83,0-18.08-6.54-18.08-18.92v-23.25c0-.74-.59-1.33-1.33-1.33h-4.29c-.72,0-1.31-.59-1.31-1.33v-7.08c0-.5.26-.94.7-1.16l6.76-3.61c.29-.15.53-.41.63-.74l3.48-10.17c.18-.53.7-.9,1.25-.9h9.14c.72,0,1.31.59,1.31,1.33v8.64c0,.74.59,1.33,1.33,1.33h11.81c.74,0,1.33.59,1.33,1.31v11.06c0,.74-.59,1.33-1.33,1.33h-11.81c-.74,0-1.33.59-1.33,1.33v23.07c0,1.81.37,3.08,1.11,3.76.77.74,1.81,1.11,3.21,1.11,2.34,0,4.72-.39,7.06-1.12l1.88-.59c.85-.26,1.71.37,1.71,1.27Z"/>
        <path class="cls-4" d="M254.15,53.84l-5.3-1.85c-.99-.34-.99-1.74,0-2.09l5.3-1.85,1.88-4.79v-3.28c0-6.84-1.97-12.01-5.9-15.37-3.78-3.24-9.3-4.88-16.4-4.88-3.11,0-6.43.41-9.89,1.2-3.48.79-6.76,1.99-9.71,3.52l-1.05.55c-.7.37-1,1.22-.68,1.95l3.98,8.79c.46,1.03,1.47,1.64,2.52,1.64.39,0,.79-.09,1.18-.28,2.08-.98,4.29-1.84,6.54-2.58,2.12-.66,4.35-1.01,6.65-1.01s4.05.52,5.03,1.55c.77.83,1.25,2.08,1.44,3.78.09.87-.59,1.62-1.44,1.66l-4.57.17c-8.59.26-14.87,1.84-19.24,4.83-4.66,3.21-7.02,7.96-7.02,14.13,0,5.68,1.7,10.19,5.03,13.41,3.33,3.19,7.9,4.81,13.6,4.81,4.26,0,7.85-.64,10.69-1.92,1.2-.55,2.42-1.29,3.62-2.24.83-.65,2.05-.28,2.35.73l.36,1.22c.25.84.83,1.28,1.5,1.28h9.91c.82,0,1.49-.67,1.49-1.49v-16.81l-1.88-4.79ZM236.44,62c-2.41,1.68-5.71,2.41-8.62,1.95-1.25-.2-2.65-.79-3.21-1.99-1.55-3.35,1.14-7.2,3.98-8.83,2.27-1.31,4.9-1.33,7.39-.74.57.15,1.16.33,1.73.59,1.46.66,2.73,1.75,2.78,3.48.06,2.3-2.34,4.35-4.05,5.53Z"/>
        <path class="cls-4" d="M327.93,62.48c-2.34.74-4.72,1.12-7.06,1.12-1.38,0-2.43-.37-3.21-1.11-.72-.68-1.09-1.95-1.09-3.76v-23.8c0-.33.27-.6.6-.6h13.25c.33,0,.6-.27.6-.6v-12.5c0-.33-.27-.6-.6-.6h-13.25c-.33,0-.6-.27-.6-.6v-7.48c0-1.77-1.45-3.21-3.21-3.21h-7.76c-.26,0-.48.16-.57.4l-3.73,10.94s-.03.02-.03.04c-1.57-.09-3.13-.19-4.7-.28-3.13-.18-14.32-1.49-19.62,2.38-1.34.98-2.67,1.97-3.83,3.19l-.41-2.51c-.27-1.66-1.7-2.87-3.38-2.87h-7.49c-1.74,0-3.15,1.41-3.15,3.15v20.5l1.47,3.75,5.31,1.85c.99.34.99,1.74,0,2.09l-5.31,1.85-1.47,3.75v16.67c0,1.48,1.2,2.67,2.67,2.67h10.98c1.47,0,2.65-1.19,2.65-2.65v-26.62c0-3.8,1.07-6.76,3.26-9.07.13-.15.28-.29.42-.42,1.79-1.7,4.39-2.86,6.87-2.87,3.06-.02,6.1.35,9.16.35.35,0,3.33.02,5.51,0v23.28c0,12.38,6.25,18.92,18.09,18.92,2.17,0,4.31-.2,6.36-.57,2.1-.41,3.81-.88,5.2-1.49l1.66-.74v-9.92c0-1.87-1.81-3.2-3.59-2.65Z"/>
        <path class="cls-4" d="M445.77,53.84l-5.3-1.85c-.99-.34-.99-1.74,0-2.09l5.3-1.85,1.88-4.79v-3.28c0-6.84-1.97-12.01-5.9-15.37-3.78-3.24-9.3-4.88-16.4-4.88-3.11,0-6.43.41-9.89,1.2-3.48.79-6.76,1.99-9.71,3.52l-1.05.55c-.7.37-1,1.22-.68,1.95l3.98,8.79c.46,1.03,1.47,1.64,2.52,1.64.39,0,.79-.09,1.18-.28,2.08-.98,4.29-1.84,6.54-2.58,2.12-.66,4.35-1.01,6.65-1.01s4.05.52,5.03,1.55c.77.83,1.25,2.08,1.44,3.78.09.87-.59,1.62-1.44,1.66l-4.57.17c-8.59.26-14.87,1.84-19.24,4.83-4.66,3.21-7.02,7.96-7.02,14.13,0,5.68,1.7,10.19,5.03,13.41,3.33,3.19,7.9,4.81,13.6,4.81,4.26,0,7.85-.64,10.69-1.92,1.2-.55,2.42-1.29,3.62-2.24.83-.65,2.05-.28,2.35.73l.36,1.22c.25.84.83,1.28,1.5,1.28h9.91c.82,0,1.49-.67,1.49-1.49v-16.81l-1.88-4.79ZM428.07,62c-2.41,1.68-5.71,2.41-8.62,1.95-1.25-.2-2.65-.79-3.21-1.99-1.55-3.35,1.14-7.2,3.98-8.83,2.27-1.31,4.9-1.33,7.39-.74.57.15,1.16.33,1.73.59,1.46.66,2.73,1.75,2.78,3.48.06,2.3-2.34,4.35-4.05,5.53Z"/>
        <path class="cls-4" d="M463.5,0h-11.06c-1.46,0-2.63,1.18-2.63,2.63v40.4l1.97,5.02,5.31,1.85c.99.34.99,1.74,0,2.09l-5.31,1.85-1.97,5.02v15.44c0,1.46,1.18,2.63,2.63,2.63h11.06c1.44,0,2.62-1.18,2.62-2.63V2.63C466.12,1.18,464.94,0,463.5,0Z"/>
      </g>
      <g>
        <path class="cls-1" d="M15.83,71.86h16.25c.47,0,.86.38.86.86v2.57c0,1.42-1.15,2.57-2.57,2.57h-12.83c-1.42,0-2.57-1.15-2.57-2.57v-2.57c0-.47.38-.86.86-.86Z"/>
        <path class="cls-2" d="M56.53,8.12l-4.15,2.13c-.12.06-.22.16-.29.29l-2.13,4.15c-.25.48-.94.48-1.18,0l-2.13-4.15c-.06-.12-.16-.22-.29-.29l-4.15-2.13c-.48-.25-.48-.94,0-1.18l4.15-2.13c.12-.06.22-.16.29-.29l2.13-4.15c.25-.48.94-.48,1.18,0l2.13,4.15c.06.12.16.22.29.29l4.15,2.13c.48.25.48.94,0,1.18Z"/>
        <path class="cls-3" d="M33.35,27.65h-9.4v-7.49c0-1.32-1.71-1.83-2.44-.74l-8.07,12.1c-.59.88.04,2.07,1.11,2.07h9.4v7.49c0,1.32,1.71,1.83,2.44.74l8.07-12.1c.59-.88-.04-2.07-1.11-2.07Z"/>
        <path class="cls-3" d="M38.94,53.89H8.73c-.84,0-1.59-.53-1.88-1.32L.73,35.51c-1.78-7-.28-14.34,4.11-20.14,4.25-5.62,10.73-9.03,17.75-9.35.41-.02.83-.03,1.25-.03,5.7,0,11.25,1.96,15.64,5.52,6.97,5.66,9.97,15.06,7.65,23.94l-.09.29-6.22,16.85c-.29.78-1.04,1.3-1.87,1.3ZM11.82,47.66h24.07l5.14-13.91c1.65-6.51-.53-13.35-5.58-17.44-3.25-2.64-7.37-4.09-11.6-4.09-.32,0-.64,0-.95.02-5.12.23-9.85,2.73-12.96,6.84-3.22,4.26-4.34,9.63-3.08,14.77l4.96,13.81Z"/>
        <g>
          <path class="cls-1" d="M40.8,61.38v-3.16c0-.73-.6-1.33-1.33-1.33H8.44c-.73,0-1.33.6-1.33,1.33v3.16h33.68Z"/>
          <path class="cls-1" d="M7.31,64.37c.67,2.58,3,4.49,5.79,4.49h21.71c2.79,0,5.13-1.91,5.79-4.49H7.31Z"/>
        </g>
      </g>
    </g>
  </g>
</svg>